<svg width="100" height="100" viewBox="0 0 100 100" fill="none" xmlns="http://www.w3.org/2000/svg">
<path d="M69.866 50.0251L50.043 61.8751L30.11 50.0251L49.933 38.5031L69.866 50.0251Z" fill="#C5C5FF" stroke="#111111" stroke-width="6" stroke-linecap="round" stroke-linejoin="round"/>
<path d="M69.866 50.025L69.803 74.053L50.043 85.528V61.875L69.866 50.025Z" fill="#C5C5FF" stroke="#111111" stroke-width="6" stroke-linecap="round" stroke-linejoin="round"/>
<path d="M50.043 61.875V85.528L30.048 74.053L30.11 50.025L50.043 61.875Z" fill="#C5C5FF" stroke="#111111" stroke-width="6" stroke-linecap="round" stroke-linejoin="round"/>
<path d="M89.862 61.497L70.039 73.347L50.043 61.875L69.866 50.025L89.862 61.497Z" fill="#C5C5FF" stroke="#111111" stroke-width="6" stroke-linecap="round" stroke-linejoin="round"/>
<path d="M89.8621 61.4969L89.7991 85.5249L70.0391 96.9999V73.3469L89.8621 61.4969Z" fill="#C5C5FF" stroke="#111111" stroke-width="6" stroke-linecap="round" stroke-linejoin="round"/>
<path d="M70.039 73.347V97L50.044 85.525L50.043 61.875L70.039 73.347Z" fill="#C5C5FF" stroke="#111111" stroke-width="6" stroke-linecap="round" stroke-linejoin="round"/>
<path d="M49.9561 14.522L30.133 26.372L10.201 14.522L30.024 3L49.9561 14.522Z" fill="#C5C5FF" stroke="#111111" stroke-width="6" stroke-linecap="round" stroke-linejoin="round"/>
<path d="M49.9561 14.522L49.8931 38.55L30.1331 50.025V26.372L49.9561 14.522Z" fill="#C5C5FF" stroke="#111111" stroke-width="6" stroke-linecap="round" stroke-linejoin="round"/>
<path d="M30.1329 26.372V50.025L10.1379 38.55L10.2009 14.522L30.1329 26.372Z" fill="#C5C5FF" stroke="#111111" stroke-width="6" stroke-linecap="round" stroke-linejoin="round"/>
<path d="M69.9521 25.994L50.1291 37.844L30.1331 26.372L49.9561 14.522L69.9521 25.994Z" fill="#C5C5FF" stroke="#111111" stroke-width="6" stroke-linecap="round" stroke-linejoin="round"/>
<path d="M69.952 25.994L69.89 50.022L50.043 61.875L50.129 37.844L69.952 25.994Z" fill="#C5C5FF" stroke="#111111" stroke-width="6" stroke-linecap="round" stroke-linejoin="round"/>
<path d="M50.1291 37.844L50.0431 61.8749L30.1341 50.0219L30.1331 26.3719L50.1291 37.844Z" fill="#C5C5FF" stroke="#111111" stroke-width="6" stroke-linecap="round" stroke-linejoin="round"/>
</svg>
